<svg width="92" height="92" viewBox="0 0 92 92" fill="none" xmlns="http://www.w3.org/2000/svg">
<path d="M80.5001 46.0001C80.5005 44.1267 80.3466 42.2564 80.0401 40.4082L69.0001 36.4695L74.0313 25.8751C71.8354 22.834 69.1661 20.1647 66.1251 17.9688L55.5307 23.0001L51.592 11.9601C47.8893 11.3466 44.1109 11.3466 40.4082 11.9601L36.4695 23.0001L25.8751 17.9688C22.834 20.1647 20.1647 22.834 17.9688 25.8751L23.0001 36.4695L11.9601 40.4082C11.3466 44.1109 11.3466 47.8893 11.9601 51.592L23.0001 55.5307L17.9688 66.1251C20.1647 69.1661 22.834 71.8354 25.8751 74.0313L36.4695 69.0001L40.4082 80.0401C44.1109 80.6535 47.8893 80.6535 51.592 80.0401L55.5307 69.0001L66.1251 74.0313C69.1661 71.8354 71.8354 69.1661 74.0313 66.1251L69.0001 55.5307L80.0401 51.592C80.3466 49.7438 80.5005 47.8735 80.5001 46.0001Z" stroke="black"/>
<path d="M46 51.75C49.1756 51.75 51.75 49.1756 51.75 46C51.75 42.8244 49.1756 40.25 46 40.25C42.8244 40.25 40.25 42.8244 40.25 46C40.25 49.1756 42.8244 51.75 46 51.75Z" stroke="black"/>
</svg>
